<svg width="20" height="20" viewBox="0 0 20 20" fill="none" xmlns="http://www.w3.org/2000/svg">
<mask id="mask0_95_2374" style="mask-type:alpha" maskUnits="userSpaceOnUse" x="0" y="0" width="20" height="20">
<rect width="20" height="20" fill="#D9D9D9"/>
</mask>
<g mask="url(#mask0_95_2374)">
<path d="M5.19604 18.3337H3.01666C2.63305 18.3337 2.31277 18.2052 2.05583 17.9482C1.79888 17.6913 1.67041 17.371 1.67041 16.9874V14.808H2.50374V16.9874C2.50374 17.137 2.5518 17.2599 2.64791 17.3562C2.74416 17.4523 2.86708 17.5003 3.01666 17.5003H5.19604V18.3337ZM14.8115 18.3337V17.5003H16.9908C17.1404 17.5003 17.2633 17.4523 17.3596 17.3562C17.4557 17.2599 17.5037 17.137 17.5037 16.9874V14.808H18.3371V16.9874C18.3371 17.371 18.2086 17.6913 17.9517 17.9482C17.6947 18.2052 17.3744 18.3337 16.9908 18.3337H14.8115ZM10.0037 14.776C8.51874 14.776 7.18458 14.355 6.00124 13.5132C4.81805 12.6713 3.92465 11.5003 3.32104 10.0003C3.92465 8.50033 4.81805 7.32935 6.00124 6.48741C7.18458 5.6456 8.51874 5.2247 10.0037 5.2247C11.4887 5.2247 12.8229 5.6456 14.0062 6.48741C15.1894 7.32935 16.0828 8.50033 16.6865 10.0003C16.0828 11.5003 15.1894 12.6713 14.0062 13.5132C12.8229 14.355 11.4887 14.776 10.0037 14.776ZM10.0037 13.9426C11.2687 13.9426 12.4028 13.5986 13.406 12.9105C14.4092 12.2225 15.1977 11.2524 15.7715 10.0003C15.1977 8.74824 14.4092 7.77817 13.406 7.09012C12.4028 6.40206 11.2687 6.05803 10.0037 6.05803C8.73874 6.05803 7.60465 6.40206 6.60145 7.09012C5.59826 7.77817 4.80979 8.74824 4.23604 10.0003C4.80979 11.2524 5.59826 12.2225 6.60145 12.9105C7.60465 13.5986 8.73874 13.9426 10.0037 13.9426ZM10.0037 12.3882C10.6704 12.3882 11.2351 12.1569 11.6977 11.6943C12.1603 11.2316 12.3917 10.667 12.3917 10.0003C12.3917 9.33366 12.1603 8.76901 11.6977 8.30637C11.2351 7.84373 10.6704 7.61241 10.0037 7.61241C9.33708 7.61241 8.77242 7.84373 8.30979 8.30637C7.84715 8.76901 7.61583 9.33366 7.61583 10.0003C7.61583 10.667 7.84715 11.2316 8.30979 11.6943C8.77242 12.1569 9.33708 12.3882 10.0037 12.3882ZM10.0037 11.5549C9.5711 11.5549 9.20388 11.4039 8.90208 11.102C8.60013 10.8002 8.44916 10.433 8.44916 10.0003C8.44916 9.56769 8.60013 9.20046 8.90208 8.89866C9.20388 8.59671 9.5711 8.44574 10.0037 8.44574C10.4364 8.44574 10.8036 8.59671 11.1054 8.89866C11.4074 9.20046 11.5583 9.56769 11.5583 10.0003C11.5583 10.433 11.4074 10.8002 11.1054 11.102C10.8036 11.4039 10.4364 11.5549 10.0037 11.5549ZM1.67041 5.19262V3.01324C1.67041 2.62963 1.79888 2.30935 2.05583 2.05241C2.31277 1.79546 2.63305 1.66699 3.01666 1.66699H5.19604V2.50033H3.01666C2.86708 2.50033 2.74416 2.54838 2.64791 2.64449C2.5518 2.74074 2.50374 2.86366 2.50374 3.01324V5.19262H1.67041ZM17.5037 5.19262V3.01324C17.5037 2.86366 17.4557 2.74074 17.3596 2.64449C17.2633 2.54838 17.1404 2.50033 16.9908 2.50033H14.8115V1.66699H16.9908C17.3744 1.66699 17.6947 1.79546 17.9517 2.05241C18.2086 2.30935 18.3371 2.62963 18.3371 3.01324V5.19262H17.5037Z" fill="#5A1F8B"/>
</g>
</svg>
