<svg width="18" height="19" viewBox="0 0 18 19" fill="none" xmlns="http://www.w3.org/2000/svg">
<path d="M5.30775 18.6155C4.88592 18.6155 4.53042 18.4709 4.24125 18.1818C3.95225 17.8926 3.80775 17.5372 3.80775 17.1155C3.80775 16.6937 3.95225 16.3382 4.24125 16.049C4.53042 15.76 4.88592 15.6155 5.30775 15.6155C5.72958 15.6155 6.085 15.76 6.374 16.049C6.66317 16.3382 6.80775 16.6937 6.80775 17.1155C6.80775 17.5372 6.66317 17.8926 6.374 18.1818C6.085 18.4709 5.72958 18.6155 5.30775 18.6155ZM14.6923 18.6155C14.2704 18.6155 13.915 18.4709 13.626 18.1818C13.3368 17.8926 13.1923 17.5372 13.1923 17.1155C13.1923 16.6937 13.3368 16.3382 13.626 16.049C13.915 15.76 14.2704 15.6155 14.6923 15.6155C15.1141 15.6155 15.4696 15.76 15.7588 16.049C16.0478 16.3382 16.1923 16.6937 16.1923 17.1155C16.1923 17.5372 16.0478 17.8926 15.7588 18.1818C15.4696 18.4709 15.1141 18.6155 14.6923 18.6155ZM3.88075 3L6.55 8.6155H13.1845C13.3 8.6155 13.4026 8.58658 13.4923 8.52875C13.5821 8.47108 13.659 8.391 13.723 8.2885L16.3385 3.5385C16.4153 3.3975 16.4218 3.2725 16.3578 3.1635C16.2936 3.0545 16.1846 3 16.0308 3H3.88075ZM3.39225 2H16.4115C16.8462 2 17.1731 2.17725 17.3923 2.53175C17.6116 2.88625 17.6232 3.25133 17.427 3.627L14.5693 8.8345C14.4244 9.07817 14.2363 9.26925 14.0048 9.40775C13.7734 9.54625 13.5193 9.6155 13.2423 9.6155H6.1L4.8845 11.8463C4.782 12.0001 4.77883 12.1668 4.875 12.3463C4.97117 12.5258 5.11542 12.6155 5.30775 12.6155H16.1923V13.6155H5.30775C4.72442 13.6155 4.28917 13.3697 4.002 12.878C3.71483 12.3863 3.70775 11.8924 3.98075 11.3963L5.4845 8.7155L1.80775 1H0V0H2.44225L3.39225 2Z" fill="#5A1F8B"/>
</svg>
